<svg xmlns="http://www.w3.org/2000/svg" width="620" height="520" viewBox="0 0 620 520">
  <rect width="620" height="520" fill="#0f172a"/>
  <text x="50" y="48" fill="#e5e7eb" font-family="Arial" font-size="26" font-weight="700">Confusion Matrix</text>
  <text x="255" y="92" fill="#cbd5e1" font-family="Arial" font-size="18">Predicted</text>
  <text x="20" y="275" fill="#cbd5e1" font-family="Arial" font-size="18" transform="rotate(-90 20 275)">Actual</text>
  <g font-family="Arial" font-size="16" fill="#e5e7eb">
    <text x="180" y="125">Positive</text>
    <text x="300" y="125">Neutral</text>
    <text x="420" y="125">Negative</text>
    <text x="80" y="190">Positive</text>
    <text x="88" y="305">Neutral</text>
    <text x="78" y="420">Negative</text>
  </g>
  <g stroke="#0f172a" stroke-width="3" font-family="Arial" font-size="22" text-anchor="middle" dominant-baseline="middle">
    <rect x="170" y="145" width="110" height="110" fill="#1d4ed8"/><text x="225" y="200" fill="#fff">10</text>
    <rect x="280" y="145" width="110" height="110" fill="#93c5fd"/><text x="335" y="200" fill="#0f172a">2</text>
    <rect x="390" y="145" width="110" height="110" fill="#dbeafe"/><text x="445" y="200" fill="#0f172a">0</text>
    <rect x="170" y="255" width="110" height="110" fill="#bfdbfe"/><text x="225" y="310" fill="#0f172a">1</text>
    <rect x="280" y="255" width="110" height="110" fill="#1e40af"/><text x="335" y="310" fill="#fff">21</text>
    <rect x="390" y="255" width="110" height="110" fill="#bfdbfe"/><text x="445" y="310" fill="#0f172a">1</text>
    <rect x="170" y="365" width="110" height="110" fill="#dbeafe"/><text x="225" y="420" fill="#0f172a">0</text>
    <rect x="280" y="365" width="110" height="110" fill="#bfdbfe"/><text x="335" y="420" fill="#0f172a">1</text>
    <rect x="390" y="365" width="110" height="110" fill="#60a5fa"/><text x="445" y="420" fill="#0f172a">4</text>
  </g>
</svg>
